<svg width="0" height="0" class="hidden">
  <symbol fill="none" xmlns="http://www.w3.org/2000/svg" viewBox="0 0 185 185" id="sucsessful">
    <g clip-path="url(#clip0_188_120)">
      <path d="M95.4833 170.533C136.583 170.533 169.9 137.216 169.9 96.1167C169.9 55.0175 136.583 21.7 95.4833 21.7C54.3841 21.7 21.0667 55.0175 21.0667 96.1167C21.0667 137.216 54.3841 170.533 95.4833 170.533Z" fill="url(#paint0_linear_188_120)"></path>
      <path d="M50.6215 124.933L81.8913 39.0681L147.833 108.791L71.2452 143.949C58.9768 149.58 46.0022 137.618 50.6215 124.933Z" fill="#E1DCEB"></path>
      <path d="M123.394 66.1848C132.498 75.8853 139.837 85.5025 144.344 93.2044C146.598 97.0576 148.135 100.416 148.835 103.057C149.185 104.378 149.321 105.503 149.243 106.412C149.164 107.319 148.876 107.99 148.395 108.441C147.914 108.892 147.226 109.138 146.316 109.158C145.404 109.179 144.29 108.972 142.994 108.539C140.403 107.673 137.148 105.927 133.445 103.433C126.044 98.4477 116.911 90.5149 107.807 80.8143C98.7022 71.1138 91.3635 61.4966 86.857 53.7947C84.6024 49.9415 83.0657 46.5829 82.3659 43.9418C82.0159 42.6211 81.8797 41.4962 81.958 40.587C82.0362 39.6803 82.325 39.0095 82.8058 38.5583C83.2865 38.107 83.9743 37.8612 84.8841 37.8407C85.7965 37.82 86.9105 38.0272 88.2064 38.4601C90.7979 39.3258 94.0524 41.0721 97.7551 43.5661C105.156 48.5514 114.289 56.4842 123.394 66.1848Z" fill="#011625" stroke="#011625" stroke-width="0.633333"></path>
      <mask id="mask0_188_120" maskUnits="userSpaceOnUse" x="49" y="39" width="99" height="107">
        <path d="M50.6215 124.933L81.8913 39.0681L147.833 108.791L71.2452 143.949C58.9768 149.58 46.0022 137.618 50.6215 124.933Z" fill="#E1DCEB"></path>
      </mask>
      <g mask="url(#mask0_188_120)">
        <path fill-rule="evenodd" clip-rule="evenodd" d="M80.4253 96.1637C67.2138 78.862 60.5292 58.2352 58.3732 44.3869L69.0117 42.7306C70.9524 55.1958 77.0779 74.0393 88.9824 89.6295C100.775 105.073 118.028 117.116 142.633 117.116V127.883C113.918 127.883 93.7487 113.612 80.4253 96.1637Z" fill="#011625"></path>
        <path fill-rule="evenodd" clip-rule="evenodd" d="M81.8433 92.8548C68.6319 75.5531 61.9473 54.9263 59.7913 41.078L70.4298 39.4217C72.3705 51.887 78.496 70.7305 90.4005 86.3206C102.193 101.764 119.446 113.807 144.051 113.807V124.574C115.336 124.574 95.1668 110.303 81.8433 92.8548Z" fill="white"></path>
        <path fill-rule="evenodd" clip-rule="evenodd" d="M64.8263 117.908C51.6148 100.606 44.9302 79.9793 42.7742 66.131L53.4127 64.4747C55.3534 76.94 61.4789 95.7834 73.3834 111.374C85.176 126.817 102.429 138.86 127.034 138.86V149.627C98.3188 149.627 78.1497 135.356 64.8263 117.908Z" fill="white"></path>
      </g>
      <circle cx="111" cy="131.9" r="19" fill="#FE0000"></circle>
      <path fill-rule="evenodd" clip-rule="evenodd" d="M118.688 126.135C119.424 126.883 119.414 128.086 118.665 128.822L109.645 137.688C108.906 138.415 107.721 138.415 106.981 137.688L103.335 134.104C102.587 133.368 102.576 132.165 103.312 131.417C104.047 130.669 105.25 130.658 105.999 131.394L108.313 133.669L116.002 126.112C116.75 125.376 117.953 125.386 118.688 126.135Z" fill="white"></path>
      <path d="M148.154 41.1872L148.154 41.187C149.278 38.3317 149.726 35.4841 150.196 32.4994C150.276 31.9908 150.357 31.4782 150.442 30.961L148.154 41.1872ZM148.154 41.1872C147.963 41.6745 147.41 41.9155 146.923 41.7231L146.921 41.7224C146.434 41.533 146.193 40.9821 146.385 40.4953L146.385 40.4953M148.154 41.1872L146.385 40.4953M146.385 40.4953C147.457 37.7693 147.881 35.0395 148.311 32.2676M146.385 40.4953L148.311 32.2676M148.311 32.2676C148.394 31.7321 148.477 31.1949 148.565 30.656L148.311 32.2676ZM149.657 29.8716C150.175 29.9571 150.526 30.4443 150.442 30.9609L148.565 30.6558C148.651 30.138 149.14 29.7864 149.657 29.8716Z" fill="#011625" stroke="#011625" stroke-width="0.633333"></path>
      <path d="M153.604 47.2472C159.981 42.8329 166.228 36.8883 170.874 30.6607L170.874 30.6605C171.187 30.2414 171.783 30.1543 172.205 30.4665C172.625 30.7771 172.713 31.371 172.4 31.7909C167.639 38.1735 161.23 44.272 154.689 48.8027L154.689 48.8029C154.259 49.1016 153.666 48.9942 153.366 48.5647C153.067 48.1371 153.173 47.5466 153.604 47.2472ZM153.604 47.2472C153.604 47.2473 153.604 47.2474 153.603 47.2475L153.423 46.9871M153.604 47.2472C153.604 47.2472 153.604 47.2472 153.604 47.2472L153.423 46.9871M153.423 46.9871C159.773 42.5913 165.996 36.6703 170.621 30.4714L154.87 49.063C154.296 49.4619 153.506 49.3178 153.106 48.746C152.707 48.1741 152.849 47.386 153.423 46.9871Z" fill="#011625" stroke="#011625" stroke-width="0.633333"></path>
      <path d="M172.241 52.9766L172.241 52.9772C172.385 53.4745 172.096 54 171.59 54.1467C166.462 55.6117 160.813 56.3569 155.664 54.785C155.162 54.6316 154.88 54.0994 155.033 53.6024L155.033 53.6022C155.185 53.1048 155.717 52.8214 156.219 52.9749L156.219 52.9749C161.074 54.4563 166.352 53.6733 171.064 52.3252C171.57 52.1823 172.096 52.4741 172.241 52.9766Z" fill="#011625" stroke="#011625" stroke-width="0.633333"></path>
      <circle cx="155.967" cy="64.1333" r="3.8" fill="#1749B3"></circle>
      <circle cx="124.3" cy="24.8667" r="3.8" fill="#1749B3"></circle>
      <path d="M131.61 41.6251C131.282 40.2672 129.351 40.2673 129.023 41.6251L128.599 43.384C128.481 43.8692 128.103 44.2481 127.617 44.3653L125.858 44.7898C124.501 45.1176 124.501 47.0491 125.858 47.3768L127.617 47.8014C128.103 47.9186 128.481 48.2974 128.599 48.7827L129.023 50.5415C129.351 51.8994 131.282 51.8994 131.61 50.5415L132.035 48.7827C132.152 48.2974 132.531 47.9186 133.016 47.8014L134.775 47.3768C136.133 47.0491 136.133 45.1176 134.775 44.7898L133.016 44.3653C132.531 44.2481 132.152 43.8692 132.035 43.384L131.61 41.6251Z" fill="#1749B3"></path>
      <path fill-rule="evenodd" clip-rule="evenodd" d="M115.411 12.3967C115.795 13.3732 115.315 14.4762 114.338 14.8602C111.551 15.9563 107.979 19.487 105.594 23.8816C103.778 27.2266 102.896 30.6049 103.266 33.3696C104.382 31.7775 105.717 30.4715 107.266 29.6326C110.042 28.1287 113.21 28.2883 116.277 30.3782C118.956 32.2042 120.049 34.8025 119.76 37.3914C119.483 39.8668 117.973 42.1045 115.924 43.5102C113.845 44.937 111.085 45.595 108.237 44.723C106.623 44.2286 105.074 43.2727 103.658 41.8212C102.306 47.0832 102.355 53.6743 104.589 59.5037C104.964 60.4835 104.474 61.5823 103.494 61.9577C102.514 62.3332 101.416 61.8433 101.04 60.8635C98.0941 53.1756 98.4768 44.3953 100.879 38.0006C100.811 37.8772 100.743 37.7523 100.676 37.6256C98.1489 32.8537 99.6621 26.8441 102.254 22.0689C104.865 17.2568 109.007 12.8734 112.948 11.3238C113.924 10.9398 115.027 11.4201 115.411 12.3967ZM105.146 37.6739C106.581 39.7124 108.07 40.6976 109.35 41.0895C110.961 41.583 112.533 41.2291 113.774 40.377C115.047 39.504 115.846 38.196 115.983 36.9693C116.107 35.8562 115.719 34.5963 114.137 33.5184C112.132 32.1522 110.486 32.2103 109.076 32.9739C107.67 33.7353 106.278 35.3287 105.146 37.6739Z" fill="#E3E3E3"></path>
      <path fill-rule="evenodd" clip-rule="evenodd" d="M176.746 86.7063C156.83 79.304 141.589 88.5085 136.66 93.7146C135.458 94.9846 133.454 95.0395 132.184 93.8372C130.914 92.6349 130.859 90.6306 132.061 89.3605C138.32 82.7491 156.136 72.2894 178.952 80.7698C180.591 81.3791 181.426 83.202 180.817 84.8413C180.208 86.4806 178.385 87.3156 176.746 86.7063Z" fill="#CCC6D9"></path>
      <path fill-rule="evenodd" clip-rule="evenodd" d="M156.485 93.3609C156.929 93.1981 157.397 92.9818 157.758 92.6687C158.186 92.2968 158.36 91.8178 158.477 91.3136C158.627 90.6658 158.687 89.9758 158.87 89.327C158.937 89.086 159.067 88.9949 159.122 88.9545C159.263 88.8524 159.405 88.8251 159.539 88.8354C159.698 88.8472 159.916 88.9088 160.059 89.1821C160.079 89.2212 160.106 89.2808 160.124 89.3624C160.137 89.4222 160.145 89.6094 160.159 89.6865C160.194 89.8766 160.223 90.0666 160.25 90.2577C160.34 90.8936 160.392 91.4338 160.676 92.0181C161.063 92.8112 161.45 93.2965 161.975 93.5115C162.483 93.7194 163.09 93.6803 163.866 93.5173C163.94 93.4989 164.013 93.4832 164.085 93.4703C164.427 93.4089 164.754 93.6396 164.821 93.9897C164.888 94.3396 164.671 94.6806 164.332 94.7575C164.261 94.7735 164.191 94.7887 164.123 94.8026C163.074 95.0693 161.861 96.021 161.156 96.8543C160.938 97.1113 160.62 97.8297 160.295 98.2879C160.056 98.626 159.787 98.8488 159.56 98.9276C159.409 98.9806 159.281 98.9725 159.176 98.9457C159.023 98.9069 158.895 98.8215 158.798 98.6858C158.745 98.6116 158.695 98.5121 158.672 98.385C158.661 98.3239 158.659 98.1685 158.66 98.0982C158.593 97.8643 158.512 97.636 158.453 97.4C158.313 96.837 158.037 96.4806 157.709 96.0097C157.402 95.569 157.072 95.2921 156.589 95.0711C156.527 95.0554 156.02 94.9278 155.841 94.8546C155.579 94.7472 155.454 94.5674 155.409 94.4706C155.332 94.3063 155.324 94.1627 155.34 94.043C155.362 93.8664 155.44 93.7152 155.576 93.5931C155.661 93.5173 155.788 93.4435 155.958 93.4076C156.089 93.3795 156.436 93.3632 156.485 93.3609ZM159.459 92.4433C159.483 92.4971 159.508 92.5511 159.534 92.6057C160.1 93.7674 160.733 94.416 161.503 94.7307L161.528 94.7409C161.014 95.1336 160.548 95.5724 160.192 95.9932C160.045 96.1664 159.851 96.5262 159.641 96.8953C159.451 96.2588 159.139 95.8089 158.747 95.2459C158.448 94.8163 158.134 94.4929 157.749 94.2294C158.048 94.0716 158.333 93.8868 158.582 93.6711C158.996 93.3118 159.269 92.8955 159.459 92.4433Z" fill="#1749B3"></path>
      <path d="M41.6667 103.337C41.6191 103.736 41.2555 104.021 40.8558 103.97C40.459 103.92 40.1734 103.554 40.2238 103.154L41.6667 103.337ZM41.6667 103.337L41.9811 103.374C41.9128 103.948 41.3902 104.357 40.8162 104.284L40.8158 104.284C40.2461 104.212 39.8375 103.688 39.9096 103.115M41.6667 103.337L41.981 103.375C42.3886 100.072 43.7903 97.3223 46.2633 95.0977L46.2634 95.0976C46.6911 94.7125 46.7279 94.0506 46.3429 93.6199C45.9599 93.1878 45.2981 93.1505 44.8692 93.5367L39.9096 103.115M39.9096 103.115C40.3804 99.3018 42.01 96.1098 44.8692 93.5367L39.9096 103.115Z" fill="#011625" stroke="#011625" stroke-width="0.633333"></path>
      <path d="M9.05544 108.012C9.05157 108.012 9.04573 108.012 9.03741 108.012C9.03609 108.012 9.03475 108.012 9.03339 108.012L9.05544 108.012ZM9.05544 108.012C9.06456 108.003 9.08005 107.983 9.09835 107.938C9.12258 107.878 9.14164 107.8 9.16373 107.691L9.16381 107.69C9.19608 107.532 9.2138 107.357 9.21921 107.173C9.14739 107.377 9.05003 107.707 9.03352 108.006L9.05544 108.012ZM8.14367 109.946L8.14388 109.946C9.04453 110.237 9.74796 110.094 10.2669 109.72C10.7617 109.365 11.0728 108.787 11.2097 108.109L11.2097 108.109C11.3401 107.462 11.3107 106.695 11.2057 105.981C11.1113 105.339 10.9525 104.719 10.7767 104.237C11.2365 103.593 11.7528 102.989 12.3172 102.432C16.7717 98.037 24.4324 98.1212 31.1114 102.663C32.2282 103.423 33.1998 104.747 34.0485 106.445C34.8947 108.138 35.604 110.172 36.2114 112.317C37.8574 118.128 38.6537 124.694 39.0298 127.795C39.0862 128.26 39.1331 128.647 39.1721 128.942L39.1722 128.943C39.2109 129.232 39.2579 129.463 39.3016 129.633C39.3235 129.718 39.345 129.789 39.3651 129.847C39.3816 129.894 39.4051 129.956 39.4361 130.005C39.6999 130.428 40.0747 130.497 40.305 130.504L40.3085 130.504C40.6325 130.51 40.885 130.407 41.0783 130.263L41.0798 130.262C41.3432 130.063 41.528 129.76 41.5687 129.359L41.5689 129.357C41.5895 129.138 41.5567 128.869 41.5101 128.617L41.5095 128.614C41.4997 128.564 41.4879 128.515 41.4773 128.471C41.466 128.425 41.4566 128.387 41.4482 128.35C41.4401 128.314 41.4349 128.285 41.4322 128.262C41.4294 128.239 41.4303 128.23 41.4302 128.231C41.5142 127.523 41.6349 126.824 41.7576 126.113C41.7755 126.009 41.7934 125.905 41.8113 125.8L41.8115 125.8C42.271 123.082 43.0135 120.481 43.8856 117.853L43.5851 117.753L43.8856 117.853C44.1198 117.147 44.3524 116.439 44.5853 115.73C47.123 108.003 49.7011 100.154 54.8315 93.841L54.8316 93.8409C55.1937 93.395 55.1307 92.7351 54.6834 92.3682C54.2376 91.9997 53.58 92.0678 53.2142 92.5143L53.2134 92.5153C47.8574 99.1042 45.1647 107.288 42.5592 115.207C42.3411 115.87 42.1236 116.531 41.9053 117.189L41.9052 117.189C41.3408 118.89 40.8266 120.589 40.4036 122.318C39.8555 118.689 39.0229 114.198 37.7665 110.234C37.1166 108.183 36.3425 106.268 35.4365 104.663C34.5321 103.061 33.4851 101.749 32.2801 100.929L32.28 100.929C24.7987 95.8415 16.0309 95.8265 10.8534 100.937L10.8533 100.937C10.4 101.385 9.97113 101.86 9.57311 102.36C5.58951 97.5717 -1.13809 96.5198 -6.38062 100.029C-6.86221 100.351 -6.98771 101.001 -6.67099 101.48L-6.67099 101.48L-6.66984 101.482C-6.34897 101.961 -5.70261 102.095 -5.22061 101.773L-5.22024 101.773C-0.721993 98.7615 5.08661 99.8104 8.33511 104.163C7.9207 104.874 7.56375 105.622 7.27772 106.399C7.13805 106.778 6.9008 107.599 6.95288 108.29C7.00734 109.044 7.37411 109.697 8.14367 109.946Z" fill="#011625" stroke="#011625" stroke-width="0.633333"></path>
    </g>
    <defs>
      <linearGradient id="paint0_linear_188_120" x1="94.9097" y1="-2.5319" x2="96.4341" y2="258.808" gradientUnits="userSpaceOnUse">
        <stop stop-color="#E9E6E6"></stop>
        <stop offset="0.276042" stop-color="#F7F7F7"></stop>
      </linearGradient>
      <clipPath id="clip0_188_120">
        <rect width="185" height="185" fill="white"></rect>
      </clipPath>
    </defs>
  </symbol>
  <symbol fill="none" xmlns="http://www.w3.org/2000/svg" viewBox="0 0 185 185" id="server">
    <path d="M90.2804 149.877C122.182 149.877 148.044 124.299 148.044 92.7483C148.044 61.1972 122.182 35.62 90.2804 35.62C58.3785 35.62 32.5168 61.1972 32.5168 92.7483C32.5168 124.299 58.3785 149.877 90.2804 149.877Z" fill="url(#paint0_linear_188_115)"></path>
    <path fill-rule="evenodd" clip-rule="evenodd" d="M140.118 129.165C140.645 128.98 141.199 128.733 141.626 128.376C142.133 127.952 142.339 127.406 142.478 126.832C142.656 126.093 142.727 125.307 142.943 124.567C143.023 124.292 143.176 124.188 143.242 124.142C143.409 124.026 143.577 123.995 143.736 124.007C143.924 124.02 144.182 124.09 144.352 124.402C144.376 124.446 144.407 124.514 144.428 124.607C144.444 124.676 144.454 124.889 144.47 124.977C144.511 125.193 144.545 125.41 144.577 125.628C144.684 126.353 144.745 126.969 145.083 127.635C145.54 128.539 145.999 129.092 146.621 129.337C147.223 129.574 147.942 129.529 148.86 129.344C148.948 129.323 149.034 129.305 149.12 129.29C149.525 129.22 149.912 129.483 149.992 129.882C150.071 130.281 149.814 130.67 149.412 130.757C149.329 130.776 149.246 130.793 149.164 130.809C147.923 131.113 146.486 132.198 145.65 133.148C145.393 133.441 145.016 134.259 144.631 134.782C144.348 135.167 144.029 135.421 143.761 135.511C143.582 135.571 143.43 135.562 143.305 135.532C143.124 135.487 142.973 135.39 142.858 135.235C142.795 135.151 142.736 135.037 142.709 134.893C142.695 134.823 142.694 134.646 142.694 134.566C142.616 134.299 142.52 134.039 142.45 133.77C142.283 133.128 141.956 132.722 141.568 132.185C141.204 131.682 140.814 131.367 140.242 131.115C140.168 131.097 139.567 130.952 139.355 130.868C139.045 130.746 138.898 130.541 138.844 130.43C138.753 130.243 138.744 130.079 138.762 129.943C138.789 129.742 138.88 129.569 139.042 129.43C139.143 129.344 139.293 129.26 139.494 129.219C139.649 129.187 140.061 129.168 140.118 129.165ZM143.641 128.119C143.669 128.181 143.699 128.242 143.73 128.305C144.401 129.629 145.15 130.368 146.061 130.727L146.092 130.739C145.482 131.186 144.931 131.686 144.509 132.166C144.335 132.363 144.105 132.774 143.857 133.194C143.631 132.469 143.262 131.956 142.798 131.314C142.444 130.824 142.072 130.456 141.615 130.155C141.97 129.976 142.308 129.765 142.602 129.519C143.092 129.109 143.416 128.635 143.641 128.119Z" fill="#1749B3"></path>
    <ellipse cx="24.7656" cy="81.6159" rx="2.73572" ry="2.70564" fill="#1749B3"></ellipse>
    <path d="M48.4212 57.3705C48.5039 57.6573 48.8066 57.8224 49.0962 57.7386C49.3836 57.655 49.5512 57.3539 49.4663 57.0671L48.4212 57.3705ZM48.4212 57.3705L48.1794 57.4403C48.3013 57.8629 48.7452 58.1022 49.1661 57.9803L49.1665 57.9802C49.5853 57.8584 49.8327 57.4187 49.7077 56.9959C48.9048 54.2587 47.3175 52.1128 44.8944 50.5655C44.526 50.3301 44.033 50.4357 43.7962 50.8045C43.5568 51.1741 43.6664 51.6653 44.0355 51.9012L44.0356 51.9012C46.1258 53.2353 47.4867 55.0781 48.1797 57.4414L48.4212 57.3705Z" fill="#011625" stroke="#011625" stroke-width="0.503333"></path>
    <path d="M74.0007 58.2764L74.0009 58.2764C74.5468 58.0004 74.7432 57.4723 74.6933 56.908C74.6492 56.3923 74.3746 55.8172 74.2259 55.5559C74.2259 55.5558 74.2258 55.5558 74.2258 55.5557L74.0071 55.6802L74.0007 58.2764ZM74.0007 58.2764C73.3663 58.5966 72.8253 58.5755 72.3932 58.3614C71.9809 58.1577 71.6796 57.7682 71.4964 57.2849L71.4964 57.2849M74.0007 58.2764L71.4964 57.2849M71.4964 57.2849C71.3219 56.8239 71.2523 56.257 71.245 55.7213C71.2385 55.2438 71.2814 54.7744 71.3533 54.4017C70.9391 53.9878 70.4885 53.6101 70.0082 53.2715C66.1982 50.5859 60.5501 51.5457 56.1549 55.6497C55.4225 56.3339 54.8627 57.4132 54.4376 58.7533C54.0138 60.0892 53.7315 61.659 53.5375 63.2988L53.5375 63.2988M71.4964 57.2849L53.5375 63.2988M53.5375 63.2988C53.0117 67.7399 53.2038 72.6334 53.2945 74.9458C53.3082 75.2927 53.3195 75.5815 53.3258 75.802L53.3258 75.8026M53.5375 63.2988L53.3258 75.8026M53.3258 75.8026C53.3315 76.0188 53.3242 76.194 53.312 76.3245C53.3059 76.3896 53.2985 76.4452 53.2904 76.4903C53.2838 76.527 53.2734 76.5766 53.2554 76.6183M53.3258 75.8026L53.2554 76.6183M37.6696 51.0356C37.8677 50.8121 38.2118 50.7917 38.4382 50.9901M37.6696 51.0356C37.4693 51.2591 37.4911 51.6018 37.7154 51.8C42.2942 55.8436 45.1539 61.3194 47.9452 66.6643C48.2028 67.1574 48.4597 67.6494 48.7174 68.1391L38.4382 50.9901M37.6696 51.0356L37.4813 50.8687C37.4814 50.8685 37.4816 50.8683 37.4817 50.8681C37.4819 50.868 37.482 50.8678 37.4822 50.8676L37.6696 51.0356ZM38.4382 50.9901C43.148 55.1483 46.0929 60.7782 48.9657 66.2703M38.4382 50.9901L48.9657 66.2703M53.2554 76.6183C53.2556 76.6179 53.2557 76.6175 53.2559 76.6171L53.0241 76.519L53.2543 76.6209C53.2546 76.62 53.255 76.6192 53.2554 76.6183ZM51.5976 71.0295C51.5734 68.3233 51.6575 64.9733 52.1112 61.9531C52.348 60.3759 52.6928 58.8825 53.1725 57.6007C53.6513 56.3214 54.2707 55.236 55.0667 54.4923L55.0667 54.4923C59.997 49.8885 66.4849 48.8437 70.9275 51.9766L70.9276 51.9767C71.3121 52.2481 71.6822 52.5418 72.0329 52.8567C74.4166 48.8899 79.2669 47.3344 83.5606 49.2841C83.5607 49.2841 83.5607 49.2841 83.5607 49.2842L51.5976 71.0295ZM51.5976 71.0295C51.6859 71.2352 51.7723 71.4419 51.8568 71.6496C51.8605 71.8959 51.8651 72.1358 51.8702 72.3685L51.5976 71.0295ZM51.5976 71.0295C51.5996 71.2581 51.6024 71.482 51.6059 71.7008L51.5976 71.0295ZM73.0893 56.9367C73.0857 56.9361 73.0865 56.937 73.0945 56.9358L73.0893 56.9367ZM73.0893 56.9367C73.0904 56.9413 73.0914 56.946 73.0925 56.9506C73.0928 56.9524 73.0932 56.9543 73.0935 56.9565C73.0936 56.9572 73.0938 56.9581 73.0939 56.9589C73.0961 56.9731 73.0983 56.9949 73.0999 57.0225C73.1017 57.0546 73.1022 57.0856 73.1022 57.105L73.0893 56.9367ZM48.9657 66.2703C49.2046 66.7271 49.4431 67.1829 49.682 67.6368L48.9657 66.2703ZM72.9859 56.7243L72.986 56.7246C73.0153 56.8018 73.0382 56.8554 73.0623 56.8947C73.0726 56.9116 73.0811 56.9223 73.0875 56.9291C73.0481 56.764 72.9732 56.5925 72.9068 56.461C72.9288 56.5547 72.955 56.6432 72.9859 56.7243Z" fill="#011625" stroke="#011625" stroke-width="0.503333"></path>
    <rect x="63.6212" y="65.2598" width="99.4368" height="35.4515" rx="12.08" fill="#011625"></rect>
    <rect x="104.668" y="77.4644" width="33.531" height="4.64938" rx="2.32469" fill="#CCC6D9"></rect>
    <rect x="72.2931" y="84.4384" width="66.0747" height="4.64938" rx="2.32469" fill="white"></rect>
    <ellipse cx="150.339" cy="83.2761" rx="5.78121" ry="5.81173" fill="#E1DCEB"></ellipse>
    <rect x="22.0299" y="94.8996" width="99.4368" height="35.4515" rx="12.08" fill="#E1DCEB"></rect>
    <rect x="46.889" y="107.104" width="33.531" height="4.64938" rx="2.32469" fill="#FE0000"></rect>
    <rect x="46.889" y="114.078" width="66.0747" height="4.64938" rx="2.32469" fill="white"></rect>
    <ellipse cx="36.4829" cy="112.916" rx="5.78121" ry="5.81173" fill="#FE0000"></ellipse>
    <defs>
      <linearGradient id="paint0_linear_188_115" x1="89.8351" y1="17.0176" x2="90.9925" y2="217.644" gradientUnits="userSpaceOnUse">
        <stop stop-color="#E9E6E6"></stop>
        <stop offset="0.276042" stop-color="#F7F7F7"></stop>
      </linearGradient>
    </defs>
  </symbol>
  <symbol fill="none" xmlns="http://www.w3.org/2000/svg" viewBox="0 0 173 173" id="bell">
    <path fill-rule="evenodd" clip-rule="evenodd" d="M8.02015 122.685C8.63763 122.465 9.28741 122.172 9.78849 121.749C10.3836 121.246 10.6256 120.598 10.7882 119.917C10.9968 119.041 11.0802 118.108 11.3332 117.231C11.4269 116.905 11.6072 116.782 11.6846 116.727C11.8801 116.589 12.0778 116.552 12.2637 116.566C12.4841 116.582 12.7868 116.665 12.9859 117.035C13.0143 117.088 13.0512 117.168 13.076 117.279C13.0941 117.36 13.1058 117.613 13.125 117.717C13.1729 117.974 13.213 118.231 13.2506 118.489C13.3759 119.349 13.4479 120.079 13.8436 120.869C14.3805 121.942 14.9185 122.598 15.6481 122.888C16.3536 123.169 17.1972 123.117 18.2749 122.896C18.3775 122.871 18.4789 122.85 18.5794 122.833C19.0545 122.75 19.5088 123.062 19.6021 123.535C19.6954 124.008 19.3935 124.469 18.9225 124.573C18.8242 124.595 18.7274 124.615 18.6315 124.634C17.1751 124.995 15.4891 126.281 14.5093 127.408C14.2073 127.756 13.7652 128.727 13.3141 129.346C12.9813 129.803 12.6072 130.105 12.2932 130.211C12.0827 130.283 11.9053 130.272 11.7587 130.236C11.5458 130.183 11.3691 130.068 11.2335 129.884C11.1597 129.784 11.0912 129.649 11.0586 129.478C11.043 129.395 11.0412 129.185 11.0415 129.09C10.9496 128.774 10.8371 128.465 10.7552 128.146C10.5596 127.385 10.176 126.903 9.72035 126.266C9.29415 125.67 8.83638 125.296 8.16532 124.997C8.07802 124.976 7.3736 124.803 7.12483 124.704C6.76144 124.559 6.58826 124.316 6.52544 124.185C6.41863 123.963 6.40764 123.769 6.42893 123.607C6.46051 123.368 6.56768 123.164 6.75789 122.999C6.87571 122.896 7.05173 122.797 7.28736 122.748C7.46941 122.71 7.95237 122.688 8.02015 122.685ZM12.1526 121.444C12.1853 121.517 12.2201 121.59 12.257 121.664C13.0434 123.234 13.9227 124.111 14.9916 124.537L15.0275 124.551C14.3124 125.082 13.6651 125.675 13.1704 126.244C12.9667 126.478 12.697 126.964 12.4057 127.463C12.1409 126.603 11.708 125.995 11.1636 125.233C10.7477 124.653 10.3119 124.215 9.77643 123.859C10.192 123.646 10.5884 123.396 10.9337 123.104C11.5086 122.618 11.8886 122.056 12.1526 121.444Z" fill="#1749B3"></path>
    <circle cx="23.7199" cy="17.9533" r="3.46" fill="#1749B3"></circle>
    <circle cx="161.543" cy="90.0367" r="3.46" fill="#1749B3"></circle>
    <path d="M80.81 145.973C117.117 145.973 146.55 116.541 146.55 80.2333C146.55 43.9261 117.117 14.4933 80.81 14.4933C44.5028 14.4933 15.07 43.9261 15.07 80.2333C15.07 116.541 44.5028 145.973 80.81 145.973Z" fill="url(#paint0_linear_188_109)"></path>
    <path fill-rule="evenodd" clip-rule="evenodd" d="M80.5216 40.4433C87.6875 40.4433 93.4966 34.6342 93.4966 27.4683C93.4966 20.3024 87.6875 14.4933 80.5216 14.4933C73.3557 14.4933 67.5466 20.3024 67.5466 27.4683C67.5466 34.6342 73.3557 40.4433 80.5216 40.4433ZM80.2333 34.6767C84.0551 34.6767 87.1533 31.5785 87.1533 27.7567C87.1533 23.9349 84.0551 20.8367 80.2333 20.8367C76.4115 20.8367 73.3133 23.9349 73.3133 27.7567C73.3133 31.5785 76.4115 34.6767 80.2333 34.6767Z" fill="#011625"></path>
    <path d="M80.2621 131.614C94.2913 131.614 105.664 120.241 105.664 106.212C105.664 92.1829 94.2913 80.81 80.2621 80.81C66.2329 80.81 54.86 92.1829 54.86 106.212C54.86 120.241 66.2329 131.614 80.2621 131.614Z" fill="#FE0000"></path>
    <path d="M120.466 87.3257V67.8372C120.466 57.2072 116.243 47.0126 108.726 39.496C101.21 31.9794 91.0151 27.7567 80.3851 27.7567C69.755 27.7567 59.5604 31.9794 52.0438 39.496C44.5273 47.0126 40.3045 57.2072 40.3045 67.8372V87.3257C40.305 91.8031 39.0384 96.1891 36.6511 99.9769C34.2639 103.765 30.8535 106.8 26.8141 108.731C25.8857 109.173 25.102 109.87 24.5542 110.74C24.0064 111.61 23.7171 112.618 23.72 113.647V113.752C23.7193 114.124 23.7919 114.491 23.9335 114.835C24.0752 115.178 24.2831 115.49 24.5455 115.753C24.8079 116.016 25.1195 116.224 25.4626 116.367C25.8056 116.509 26.1734 116.582 26.5448 116.582H134.22C134.591 116.582 134.959 116.509 135.302 116.367C135.645 116.224 135.957 116.016 136.219 115.753C136.482 115.49 136.69 115.178 136.831 114.835C136.973 114.491 137.046 114.124 137.045 113.752V113.647C137.045 112.622 136.755 111.617 136.209 110.75C135.662 109.883 134.881 109.188 133.956 108.747C129.914 106.814 126.502 103.777 124.115 99.9861C121.727 96.1952 120.462 91.8057 120.466 87.3257Z" fill="#E1DCEB"></path>
    <path fill-rule="evenodd" clip-rule="evenodd" d="M137.323 116.563H23.72V113.103H137.323V116.563Z" fill="#011625"></path>
    <path fill-rule="evenodd" clip-rule="evenodd" d="M49.1557 125.387C46.3931 127.886 43.6384 130.333 40.9499 132.911C40.3695 133.464 40.3476 134.374 40.8967 134.948C41.4476 135.528 42.3635 135.546 42.9384 134.995C45.614 132.434 48.3448 130.007 51.0889 127.526C51.6801 126.988 51.7259 126.076 51.197 125.489C50.6608 124.899 49.7469 124.85 49.1557 125.387Z" fill="#011625"></path>
    <path fill-rule="evenodd" clip-rule="evenodd" d="M111.56 125.388C114.307 127.888 117.047 130.336 119.719 132.914C120.296 133.466 120.314 134.376 119.762 134.949C119.209 135.528 118.294 135.545 117.723 134.994C115.063 132.432 112.347 130.004 109.618 127.523C109.031 126.986 108.989 126.074 109.521 125.488C110.059 124.899 110.972 124.851 111.56 125.388Z" fill="#011625"></path>
    <path fill-rule="evenodd" clip-rule="evenodd" d="M78.5911 141.531C78.5473 145.247 78.4715 148.924 78.536 152.64C78.5469 153.439 79.1998 154.071 79.9932 154.056C80.7918 154.044 81.4268 153.384 81.4134 152.59C81.3521 148.894 81.4263 145.249 81.4708 141.558C81.478 140.761 80.84 140.11 80.0511 140.101C79.2545 140.096 78.5982 140.733 78.5911 141.531Z" fill="#011625"></path>
    <defs>
      <linearGradient id="paint0_linear_188_109" x1="80.3032" y1="-6.91323" x2="81.6499" y2="223.956" gradientUnits="userSpaceOnUse">
        <stop stop-color="#F9F9F9"></stop>
        <stop offset="1" stop-color="#EFEFEF"></stop>
      </linearGradient>
    </defs>
  </symbol>
</svg>