<svg width="0" height="0" class="hidden">
  <symbol id="clock" xmlns="http://www.w3.org/2000/svg" viewBox="0 0 24 24">
    <path d="M15.09814,12.63379,13,11.42285V7a1,1,0,0,0-2,0v5a.99985.99985,0,0,0,.5.86621l2.59814,1.5a1.00016,1.00016,0,1,0,1-1.73242ZM12,2A10,10,0,1,0,22,12,10.01114,10.01114,0,0,0,12,2Zm0,18a8,8,0,1,1,8-8A8.00917,8.00917,0,0,1,12,20Z"></path>
  </symbol>
  <symbol xmlns="http://www.w3.org/2000/svg" viewBox="0 0 24 24" id="mail">
    <path d="M12,2a10,10,0,1,0,5,18.66,1,1,0,1,0-1-1.73A8,8,0,1,1,20,12v.75a1.75,1.75,0,0,1-3.5,0V8.5a1,1,0,0,0-1-1,1,1,0,0,0-1,.79A4.45,4.45,0,0,0,12,7.5,4.5,4.5,0,1,0,15.3,15,3.74,3.74,0,0,0,22,12.75V12A10,10,0,0,0,12,2Zm0,12.5A2.5,2.5,0,1,1,14.5,12,2.5,2.5,0,0,1,12,14.5Z"></path>
  </symbol>
  <symbol xmlns="http://www.w3.org/2000/svg" viewBox="0 0 24 24" id="phone">
    <path d="M19.44,13c-.22,0-.45-.07-.67-.12a9.44,9.44,0,0,1-1.31-.39,2,2,0,0,0-2.48,1l-.22.45a12.18,12.18,0,0,1-2.66-2,12.18,12.18,0,0,1-2-2.66L10.52,9a2,2,0,0,0,1-2.48,10.33,10.33,0,0,1-.39-1.31c-.05-.22-.09-.45-.12-.68a3,3,0,0,0-3-2.49h-3a3,3,0,0,0-3,3.41A19,19,0,0,0,18.53,21.91l.38,0a3,3,0,0,0,2-.76,3,3,0,0,0,1-2.25v-3A3,3,0,0,0,19.44,13Zm.5,6a1,1,0,0,1-.34.75,1.05,1.05,0,0,1-.82.25A17,17,0,0,1,4.07,5.22a1.09,1.09,0,0,1,.25-.82,1,1,0,0,1,.75-.34h3a1,1,0,0,1,1,.79q.06.41.15.81a11.12,11.12,0,0,0,.46,1.55l-1.4.65a1,1,0,0,0-.49,1.33,14.49,14.49,0,0,0,7,7,1,1,0,0,0,.76,0,1,1,0,0,0,.57-.52l.62-1.4a13.69,13.69,0,0,0,1.58.46q.4.09.81.15a1,1,0,0,1,.79,1Z"></path>
  </symbol>
  <symbol xmlns="http://www.w3.org/2000/svg" viewBox="0 0 24 24" id="location-arrow">
    <path d="M21.15,2.86a2.89,2.89,0,0,0-3-.71L4,6.88a2.9,2.9,0,0,0-.12,5.47l5.24,2h0a.93.93,0,0,1,.53.52l2,5.25A2.87,2.87,0,0,0,14.36,22h.07a2.88,2.88,0,0,0,2.69-2L21.85,5.83A2.89,2.89,0,0,0,21.15,2.86ZM20,5.2,15.22,19.38a.88.88,0,0,1-.84.62.92.92,0,0,1-.87-.58l-2-5.25a2.91,2.91,0,0,0-1.67-1.68l-5.25-2A.9.9,0,0,1,4,9.62a.88.88,0,0,1,.62-.84L18.8,4.05A.91.91,0,0,1,20,5.2Z"></path>
  </symbol>
</svg>