<svg width="0" height="0" class="hidden">
  <symbol xmlns="http://www.w3.org/2000/svg" viewBox="0 0 24 24" id="home">
    <defs>
      <clipPath id="clip0_295_2314">
        <rect id="svg_1" height="24" width="24"></rect>
      </clipPath>
    </defs>
    <g>
      <title>Layer 1</title>
      <g id="svg_2" clip-path="url(#clip0_295_2314)">
        <path id="svg_3" d="m19.2727,20.0839c0,0.243 -0.0958,0.476 -0.2662,0.6478c-0.1705,0.1718 -0.4018,0.2683 -0.6429,0.2683l-12.72724,0c-0.2411,0 -0.47233,-0.0965 -0.64282,-0.2683c-0.17049,-0.1718 -0.26627,-0.4048 -0.26627,-0.6478l0,-8.245l-2.72727,0l9.3882,-8.60038c0.1674,-0.15347 0.3855,-0.23852 0.6118,-0.23852c0.2263,0 0.4444,0.08505 0.6118,0.23852l9.3882,8.60038l-2.7273,0l0,8.245zm-9.99997,-9.1611l0,5.4967l5.45457,0l0,-5.4967l-5.45457,0zm1.81817,1.8322l1.8182,0l0,1.8323l-1.8182,0l0,-1.8323z"></path>
      </g>
    </g>
  </symbol>
  <symbol xmlns="http://www.w3.org/2000/svg" viewBox="0 0 24 24" id="support">
    <g clip-path="url(#clip0_295_2307)">
      <path d="M20 22H4C3.73478 22 3.48043 21.8946 3.29289 21.7071C3.10536 21.5196 3 21.2652 3 21V8H21V21C21 21.2652 20.8946 21.5196 20.7071 21.7071C20.5196 21.8946 20.2652 22 20 22ZM21 6H3V3C3 2.73478 3.10536 2.48043 3.29289 2.29289C3.48043 2.10536 3.73478 2 4 2H20C20.2652 2 20.5196 2.10536 20.7071 2.29289C20.8946 2.48043 21 2.73478 21 3V6ZM7 11V15H11V11H7ZM7 17V19H17V17H7ZM13 12V14H17V12H13Z"></path>
    </g>
    <defs>
      <clipPath id="clip0_295_2307">
        <rect width="24" height="24"></rect>
      </clipPath>
    </defs>
  </symbol>
  <symbol xmlns="http://www.w3.org/2000/svg" viewBox="0 0 24 24" id="FAQ">
    <g clip-path="url(#clip0_295_2300)">
      <path d="M12 22C6.477 22 2 17.523 2 12C2 6.477 6.477 2 12 2C17.523 2 22 6.477 22 12C22 17.523 17.523 22 12 22ZM11 15V17H13V15H11ZM13 13.355C13.8037 13.1128 14.4936 12.59 14.9442 11.8817C15.3947 11.1735 15.5759 10.3271 15.4547 9.49647C15.3336 8.66588 14.9181 7.90644 14.284 7.35646C13.6499 6.80647 12.8394 6.50254 12 6.5C11.1909 6.49994 10.4067 6.78015 9.78079 7.29299C9.15492 7.80583 8.72601 8.51963 8.567 9.313L10.529 9.706C10.5847 9.42743 10.7183 9.1704 10.9144 8.96482C11.1104 8.75923 11.3608 8.61354 11.6364 8.54471C11.912 8.47587 12.2015 8.48671 12.4712 8.57597C12.7409 8.66523 12.9797 8.82924 13.1598 9.04891C13.34 9.26858 13.454 9.53489 13.4887 9.81684C13.5234 10.0988 13.4773 10.3848 13.3558 10.6416C13.2343 10.8984 13.0423 11.1154 12.8023 11.2673C12.5623 11.4193 12.2841 11.5 12 11.5C11.7348 11.5 11.4804 11.6054 11.2929 11.7929C11.1054 11.9804 11 12.2348 11 12.5V14H13V13.355Z"></path>
    </g>
    <defs>
      <clipPath id="clip0_295_2300">
        <rect width="24" height="24"></rect>
      </clipPath>
    </defs>
  </symbol>
  <symbol xmlns="http://www.w3.org/2000/svg" viewBox="0 0 24 24" id="about">
    <g clip-path="url(#clip0_295_2293)">
      <path d="M4 12.8889H11.1111V4H4V12.8889ZM4 20H11.1111V14.6667H4V20ZM12.8889 20H20V11.1111H12.8889V20ZM12.8889 4V9.33333H20V4H12.8889Z"></path>
    </g>
    <defs>
      <clipPath id="clip0_295_2293">
        <rect width="24" height="24"></rect>
      </clipPath>
    </defs>
  </symbol>
</svg>