<svg width="0" height="0" class="hidden">
  <symbol fill="none" xmlns="http://www.w3.org/2000/svg" viewBox="0 0 40 40" id="close">
    <rect width="40" height="40" rx="12" fill="#171717" fill-opacity="0.05"></rect>
    <path d="M13.9577 20.6391C13.2582 21.1446 13.1268 22.0879 13.6643 22.7459C14.2018 23.4039 15.2046 23.5274 15.9041 23.0219L20.9706 19.3603C21.6702 18.8547 21.8015 17.9115 21.2641 17.2535C20.7266 16.5955 19.7238 16.4719 19.0242 16.9775L13.9577 20.6391Z" fill="#3A3A3C"></path>
    <path d="M24.0978 23.0171C24.798 23.5218 25.8007 23.397 26.3373 22.7384C26.8739 22.0798 26.7412 21.1367 26.041 20.632L20.9696 16.9764C20.2694 16.4717 19.2667 16.5964 18.7301 17.2551C18.1935 17.9137 18.3262 18.8568 19.0264 19.3615L24.0978 23.0171Z" fill="#3A3A3C"></path>
  </symbol>
  <symbol fill="none" xmlns="http://www.w3.org/2000/svg" viewBox="0 0 40 40" id="open">
    <rect width="40" height="40" rx="12" fill="#171717" fill-opacity="0.05"></rect>
    <path d="M26.0423 19.3609C26.7418 18.8554 26.8732 17.9121 26.3357 17.2541C25.7982 16.5961 24.7954 16.4726 24.0959 16.9781L19.0294 20.6397C18.3298 21.1453 18.1985 22.0885 18.7359 22.7465C19.2734 23.4045 20.2762 23.5281 20.9758 23.0225L26.0423 19.3609Z" fill="#3A3A3C"></path>
    <path d="M15.9022 16.9829C15.202 16.4782 14.1993 16.603 13.6627 17.2616C13.1261 17.9202 13.2588 18.8633 13.959 19.368L19.0304 23.0236C19.7306 23.5283 20.7333 23.4036 21.2699 22.7449C21.8065 22.0863 21.6738 21.1432 20.9736 20.6385L15.9022 16.9829Z" fill="#3A3A3C"></path>
  </symbol>
</svg>