<svg width="0" height="0" class="hidden">
  <symbol xmlns="http://www.w3.org/2000/svg" viewBox="0 0 24 24" id="notavailable">
    <path d="M15.71,8.29a1,1,0,0,0-1.42,0L12,10.59,9.71,8.29A1,1,0,0,0,8.29,9.71L10.59,12l-2.3,2.29a1,1,0,0,0,0,1.42,1,1,0,0,0,1.42,0L12,13.41l2.29,2.3a1,1,0,0,0,1.42,0,1,1,0,0,0,0-1.42L13.41,12l2.3-2.29A1,1,0,0,0,15.71,8.29Zm3.36-3.36A10,10,0,1,0,4.93,19.07,10,10,0,1,0,19.07,4.93ZM17.66,17.66A8,8,0,1,1,20,12,7.95,7.95,0,0,1,17.66,17.66Z"></path>
  </symbol>
  <symbol xmlns="http://www.w3.org/2000/svg" viewBox="0 0 32 32" id="available">
    <g clip-path="url(#clip0_216_116)">
      <path d="M15.9998 29.3333C8.63584 29.3333 2.6665 23.364 2.6665 16C2.6665 8.63596 8.63584 2.66663 15.9998 2.66663C23.3638 2.66663 29.3332 8.63596 29.3332 16C29.3332 23.364 23.3638 29.3333 15.9998 29.3333ZM14.6705 21.3333L24.0972 11.9053L22.2118 10.02L14.6705 17.5626L10.8985 13.7906L9.01317 15.676L14.6705 21.3333Z"></path>
    </g>
    <defs>
      <clipPath id="clip0_216_116">
        <rect width="32" height="32"></rect>
      </clipPath>
    </defs>
  </symbol>
</svg>